<svg width="528" height="372" viewBox="0 0 528 372" fill="none" xmlns="http://www.w3.org/2000/svg">
<path d="M106.089 70.2266L95.377 118.647C95.0591 120.084 96.3493 121.36 97.7826 121.027L352.723 61.7643C353.425 61.6011 353.985 61.0731 354.189 60.3821L371 3.39069C371.44 1.89905 370.084 0.497972 368.579 0.889112L107.539 68.7229C106.812 68.9119 106.252 69.4928 106.089 70.2266Z" fill="#008AF8"/>
<path d="M179.934 320.481L169.746 368.891C169.443 370.332 170.748 371.595 172.178 371.246L414.482 312.032C415.183 311.861 415.738 311.325 415.933 310.63L431.919 253.655C432.339 252.158 430.966 250.776 429.467 251.185L181.364 318.964C180.64 319.161 180.088 319.747 179.934 320.481Z" fill="#008AF8"/>
<path d="M523.468 48.4084L110.313 155.628C109.765 155.77 109.302 156.138 109.041 156.641L76.4837 219.197C75.6827 220.736 77.0871 222.495 78.7653 222.055L496.609 112.439C497.186 112.287 497.665 111.886 497.916 111.345L525.785 51.1849C526.495 49.6523 525.103 47.9841 523.468 48.4084Z" fill="#008AF8"/>
<path d="M455.817 149.851L36.4334 257.086C35.8865 257.226 35.4241 257.591 35.1604 258.09L2.11475 320.651C1.30332 322.187 2.70169 323.956 4.38373 323.521L428.525 213.889C429.101 213.74 429.581 213.342 429.835 212.804L458.122 152.64C458.841 151.109 457.455 149.432 455.817 149.851Z" fill="#008AF8"/>
</svg>
